<svg width="206" height="48" viewBox="0 0 206 48" fill="none" xmlns="http://www.w3.org/2000/svg">
<path d="M37.9717 6.49512V32.0208H34.6592V6.49512H37.9717Z" fill="#007C47"/>
<path d="M45.5715 20.0057V32.0216H42.259V15.589H45.5715V17.4726C46.286 15.589 47.65 14.6797 49.7284 14.6797C51.4821 14.6797 52.911 15.3292 53.9502 16.5633C54.9894 17.7973 55.509 19.4211 55.574 21.3047V31.9566H52.2615V21.4995C52.2615 20.5253 51.9367 19.7459 51.2223 19.0314C50.5078 18.3819 49.7284 17.9922 48.7541 17.9922C47.7799 17.9922 47.0005 18.3169 46.286 18.9664C45.9612 19.4211 45.7014 19.7459 45.5715 20.0057Z" fill="#007C47"/>
<path d="M72.6559 26.3704L75.9684 27.5396C75.189 28.6437 74.6044 29.4231 74.2147 29.7479C72.461 31.5016 70.3176 32.4109 67.7845 32.4109C65.2515 32.4109 63.173 31.5016 61.3544 29.7479C59.6007 27.9942 58.6914 25.8508 58.6914 23.3177C58.6914 20.7847 59.6007 18.6413 61.3544 16.8876C63.1081 15.1339 65.2515 14.2246 67.7845 14.2246C70.3176 14.2246 72.461 15.1339 74.2147 16.8876C74.6044 17.2773 75.189 17.9918 75.9684 19.0959L72.6559 20.33C72.2012 19.8104 71.9414 19.4856 71.8115 19.3557C70.7073 18.2516 69.3434 17.667 67.7845 17.667C66.2257 17.667 64.8617 18.2516 63.7576 19.3557C62.6534 20.4599 62.0689 21.8239 62.0689 23.3827C62.0689 24.9415 62.6534 26.3055 63.7576 27.4097C64.8617 28.5138 66.2257 29.0984 67.7845 29.0984C69.3434 29.0984 70.7073 28.5138 71.8115 27.4097C71.9414 27.2148 72.2012 26.89 72.6559 26.3704Z" fill="#007C47"/>
<path d="M87.0751 14.29C89.6082 14.29 91.7515 15.1994 93.5052 16.953C95.2589 18.7067 96.1682 20.8501 96.1682 23.3832C96.1682 25.9163 95.2589 28.0596 93.5052 29.8133C91.7515 31.567 89.6082 32.4763 87.0751 32.4763C84.542 32.4763 82.4636 31.567 80.6449 29.8133C78.8913 28.0596 77.9819 25.9163 77.9819 23.3832C77.9819 20.8501 78.8913 18.7067 80.6449 16.953C82.4636 15.1344 84.6069 14.29 87.0751 14.29ZM83.0481 19.3562C81.9439 20.4604 81.3594 21.8243 81.3594 23.3832C81.3594 24.942 81.9439 26.306 83.0481 27.4101C84.1523 28.5143 85.5162 29.0989 87.0751 29.0989C88.6339 29.0989 89.9979 28.5143 91.102 27.4101C92.2062 26.306 92.7908 24.942 92.7908 23.3832C92.7908 21.8243 92.2062 20.4604 91.102 19.3562C89.9979 18.252 88.6339 17.6675 87.0751 17.6675C85.5162 17.6675 84.1523 18.252 83.0481 19.3562Z" fill="#007C47"/>
<path d="M112.211 26.3704L115.523 27.5396C114.744 28.6437 114.159 29.4231 113.769 29.7479C112.016 31.5016 109.872 32.4109 107.339 32.4109C104.806 32.4109 102.728 31.5016 100.909 29.7479C99.1554 27.9942 98.2461 25.8508 98.2461 23.3177C98.2461 20.7847 99.1554 18.6413 100.909 16.8876C102.663 15.1339 104.806 14.2246 107.339 14.2246C109.872 14.2246 112.016 15.1339 113.769 16.8876C114.159 17.2773 114.744 17.9918 115.523 19.0959L112.211 20.33C111.756 19.8104 111.496 19.4856 111.366 19.3557C110.262 18.2516 108.898 17.667 107.339 17.667C105.78 17.667 104.416 18.2516 103.312 19.3557C102.208 20.4599 101.624 21.8239 101.624 23.3827C101.624 24.9415 102.208 26.3055 103.312 27.4097C104.416 28.5138 105.78 29.0984 107.339 29.0984C108.898 29.0984 110.262 28.5138 111.366 27.4097C111.496 27.2148 111.821 26.89 112.211 26.3704Z" fill="#007C47"/>
<path d="M121.823 17.7968C123.058 16.1081 124.551 15.2637 126.37 15.1338V18.5762C125.136 18.6411 124.227 19.0308 123.512 19.7453C122.408 20.7845 121.888 22.0835 121.823 23.5774V32.021H118.511V15.5884H121.823V17.7968Z" fill="#007C47"/>
<path d="M133.904 28.3187C134.489 28.8383 135.463 29.0331 136.892 29.0331C138.451 29.0331 139.815 28.4486 140.919 27.3444C141.049 27.2145 141.309 26.8898 141.763 26.3701L145.076 27.5393C144.296 28.6434 143.712 29.4228 143.322 29.7476C141.568 31.5013 139.425 32.4106 136.892 32.4106C134.359 32.4106 132.28 31.5013 130.462 29.7476C128.708 27.9939 127.799 25.8505 127.799 23.3175C127.799 20.7844 128.708 18.641 130.462 16.8873C132.215 15.1336 134.359 14.2243 136.892 14.2243C139.035 14.2243 140.919 14.8738 142.543 16.1728C142.802 16.3677 143.062 16.6275 143.322 16.8873C143.452 17.0172 143.712 17.342 144.231 17.8616L142.543 19.5503L133.904 28.3187ZM139.425 18.1214C139.035 17.8616 138.191 17.6667 136.892 17.6667C135.333 17.6667 133.969 18.2513 132.865 19.3554C131.761 20.4596 131.176 21.8236 131.176 23.3824C131.176 24.6814 131.306 25.5258 131.631 25.9155L139.425 18.1214ZM137.412 9.54785H141.439L137.087 14.0295H133.969L137.412 9.54785Z" fill="#007C47"/>
<path d="M162.353 16.7574V6.49512H165.665V32.0208H162.353V30.0074C160.729 31.6311 158.91 32.4755 156.767 32.4755C154.234 32.4755 152.09 31.5662 150.337 29.8125C148.583 28.0588 147.674 25.9155 147.674 23.3824C147.674 20.8493 148.583 18.7059 150.337 16.9522C152.09 15.1985 154.234 14.2892 156.767 14.2892C158.91 14.2892 160.794 15.0686 162.353 16.7574ZM162.353 24.6164V22.1483C162.158 21.1091 161.638 20.1998 160.794 19.3554C159.69 18.2512 158.326 17.6667 156.767 17.6667C155.208 17.6667 153.844 18.2512 152.74 19.3554C151.636 20.4596 151.051 21.8235 151.051 23.3824C151.051 24.9412 151.636 26.3052 152.74 27.4093C153.844 28.5135 155.208 29.0981 156.767 29.0981C158.326 29.0981 159.69 28.5135 160.794 27.4093C161.703 26.565 162.158 25.5907 162.353 24.6164Z" fill="#007C47"/>
<path d="M173.265 9.54806C173.719 10.0027 173.979 10.5223 173.979 11.1718C173.979 11.8213 173.719 12.3409 173.265 12.7956C172.81 13.2503 172.29 13.4451 171.641 13.4451C170.991 13.4451 170.472 13.2503 170.017 12.7956C169.562 12.3409 169.302 11.8213 169.302 11.1718C169.302 10.5223 169.562 10.0027 170.017 9.54806C170.472 9.0934 170.991 8.89855 171.641 8.89855C172.225 8.8336 172.81 9.0934 173.265 9.54806ZM173.265 15.5885V32.0211H169.952V15.5885H173.265Z" fill="#007C47"/>
<path d="M179.5 15.5883V9.41797H182.812V15.5883H185.735V18.9008H182.812V32.0209H179.5V18.9008H176.577V15.5883H179.5Z" fill="#007C47"/>
<path d="M196.907 14.29C199.44 14.29 201.584 15.1994 203.337 16.953C205.091 18.7067 206 20.8501 206 23.3832C206 25.9163 205.091 28.0596 203.337 29.8133C201.584 31.567 199.44 32.4763 196.907 32.4763C194.374 32.4763 192.296 31.567 190.477 29.8133C188.723 28.0596 187.814 25.9163 187.814 23.3832C187.814 20.8501 188.723 18.7067 190.477 16.953C192.296 15.1344 194.439 14.29 196.907 14.29ZM192.88 19.3562C191.776 20.4604 191.191 21.8243 191.191 23.3832C191.191 24.942 191.776 26.306 192.88 27.4101C193.984 28.5143 195.348 29.0989 196.907 29.0989C198.466 29.0989 199.83 28.5143 200.934 27.4101C202.038 26.306 202.623 24.942 202.623 23.3832C202.623 21.8243 202.038 20.4604 200.934 19.3562C199.83 18.252 198.466 17.6675 196.907 17.6675C195.348 17.6675 193.984 18.252 192.88 19.3562Z" fill="#007C47"/>
<path d="M70.2527 5.39084C70.1228 5.58569 70.3826 5.84549 70.8372 5.97539C71.2919 6.1053 71.8115 6.1053 71.9414 5.91044C72.0713 5.71559 71.8115 5.45579 71.3568 5.32589C70.8372 5.19598 70.3826 5.19598 70.2527 5.39084Z" fill="url(#paint0_linear_482_8949)"/>
<path d="M68.0437 4.74143C67.9788 4.93628 68.2386 5.19609 68.7582 5.32599C69.2129 5.45589 69.6675 5.39094 69.7974 5.19609C69.8624 5.00123 69.6026 4.74143 69.083 4.61153C68.6283 4.48163 68.1736 4.54658 68.0437 4.74143Z" fill="url(#paint1_linear_482_8949)"/>
<path d="M65.9656 4.2219C65.9007 4.41675 66.2904 4.67656 66.745 4.80646C67.2646 4.93636 67.6543 4.87141 67.7193 4.67656C67.7842 4.4817 67.3945 4.2219 66.9399 4.092C66.4203 3.96209 66.0306 4.02705 65.9656 4.2219Z" fill="url(#paint2_linear_482_8949)"/>
<path d="M63.627 3.76667C63.627 3.96153 64.0167 4.22133 64.5363 4.28628C65.0559 4.41618 65.4456 4.28628 65.4456 4.09143C65.4456 3.89658 65.0559 3.63677 64.6012 3.57182C64.0816 3.44192 63.6919 3.57182 63.627 3.76667Z" fill="url(#paint3_linear_482_8949)"/>
<path d="M61.3541 3.44271C61.3541 3.63757 61.8088 3.89737 62.3284 3.96232C62.848 4.02727 63.2377 3.89737 63.1727 3.70252C63.1078 3.50767 62.7181 3.24786 62.1985 3.18291C61.7438 3.11796 61.2892 3.24786 61.3541 3.44271Z" fill="url(#paint4_linear_482_8949)"/>
<path d="M58.8863 3.18197C58.9512 3.37683 59.4059 3.63663 59.9255 3.70158C60.4451 3.76653 60.7698 3.63663 60.7049 3.44178C60.6399 3.24692 60.1853 2.98712 59.6657 2.92217C59.211 2.85722 58.8213 2.98712 58.8863 3.18197Z" fill="url(#paint5_linear_482_8949)"/>
<path d="M56.2228 3.05279C56.3527 3.3126 56.9373 3.50745 57.5218 3.5724C58.1064 3.63735 58.4311 3.4425 58.3012 3.18269C58.1713 2.92289 57.5868 2.72804 57.0672 2.66309C56.4177 2.66309 56.0929 2.79299 56.2228 3.05279Z" fill="url(#paint6_linear_482_8949)"/>
<path d="M53.3648 3.05264C53.5596 3.31245 54.2091 3.57225 54.8586 3.57225C55.5081 3.57225 55.8329 3.3774 55.638 3.11759C55.4432 2.85779 54.7937 2.66294 54.1442 2.59799C53.4947 2.53303 53.1699 2.79284 53.3648 3.05264Z" fill="url(#paint7_linear_482_8949)"/>
<path d="M50.3772 3.11824C50.637 3.37804 51.4164 3.63785 52.1309 3.63785C52.7804 3.63785 53.1052 3.37804 52.8454 3.11824C52.5206 2.85844 51.8061 2.59863 51.0917 2.59863C50.4422 2.59863 50.0525 2.85844 50.3772 3.11824Z" fill="url(#paint8_linear_482_8949)"/>
<path d="M47.3897 3.37742C47.7145 3.63722 48.4939 3.83208 49.1434 3.76713C49.7929 3.70218 49.9877 3.50732 49.7279 3.18257C49.4032 2.92276 48.6238 2.72791 48.0392 2.79286C47.3248 2.85781 47.0649 3.11762 47.3897 3.37742Z" fill="url(#paint9_linear_482_8949)"/>
<path d="M44.2068 3.83256C44.5965 4.09236 45.4409 4.28721 46.0904 4.15731C46.7399 4.09236 46.9347 3.83256 46.545 3.57275C46.1553 3.31295 45.3759 3.18305 44.7264 3.248C44.0769 3.31295 43.8171 3.57275 44.2068 3.83256Z" fill="url(#paint10_linear_482_8949)"/>
<path d="M40.9592 4.48172C41.4139 4.74152 42.2582 4.87143 42.9077 4.74152C43.4923 4.61162 43.6222 4.35182 43.2325 4.09201C42.7778 3.83221 41.9335 3.70231 41.3489 3.83221C40.6994 3.96211 40.5046 4.22192 40.9592 4.48172Z" fill="url(#paint11_linear_482_8949)"/>
<path d="M37.5171 5.32586C38.1017 5.58566 39.0759 5.71556 39.7255 5.52071C40.375 5.39081 40.4399 5.06605 39.8554 4.80625C39.3357 4.54645 38.2965 4.41654 37.647 4.6114C37.0625 4.7413 36.9975 5.06605 37.5171 5.32586Z" fill="url(#paint12_linear_482_8949)"/>
<path d="M30.8918 7.85865C31.6063 8.0535 32.5805 8.0535 33.1651 7.85865C33.6847 7.66379 33.6197 7.33904 32.9702 7.14419C32.3207 6.94933 31.2815 6.94933 30.7619 7.14419C30.1124 7.33904 30.1773 7.66379 30.8918 7.85865Z" fill="url(#paint13_linear_482_8949)"/>
<path d="M27.6444 9.61245C28.4238 9.80731 29.463 9.74236 29.9826 9.48255C30.5022 9.22275 30.3074 8.89799 29.5929 8.70314C28.8135 8.50829 27.7743 8.57324 27.2547 8.83304C26.6701 9.09285 26.865 9.4176 27.6444 9.61245Z" fill="url(#paint14_linear_482_8949)"/>
<path d="M24.3319 11.8207C25.4361 12.0155 26.865 11.8856 27.4495 11.4959C28.0341 11.1062 27.7093 10.6516 26.6052 10.4567C25.501 10.2619 24.137 10.3918 23.4875 10.7815C22.838 11.1712 23.2277 11.6258 24.3319 11.8207Z" fill="url(#paint15_linear_482_8949)"/>
<path d="M21.7339 14.2893C22.903 14.4192 24.267 14.2244 24.7866 13.8347C25.3062 13.4449 24.7866 12.9903 23.6824 12.8604C22.5783 12.7305 21.1493 12.9253 20.6297 13.315C20.0452 13.7048 20.5648 14.1594 21.7339 14.2893Z" fill="url(#paint16_linear_482_8949)"/>
<path d="M19.5259 17.0824C20.76 17.1473 22.1239 16.8226 22.5786 16.4329C22.9683 15.9782 22.3837 15.5885 21.1497 15.5235C19.9156 15.4586 18.5516 15.7184 18.097 16.1731C17.6423 16.6277 18.2918 17.0174 19.5259 17.0824Z" fill="url(#paint17_linear_482_8949)"/>
<path d="M18.032 20.2644C19.331 20.2644 20.695 19.8747 21.0197 19.3551C21.3445 18.9004 20.5651 18.5107 19.266 18.5107C17.967 18.5107 16.6031 18.9004 16.2783 19.3551C15.8886 19.8747 16.668 20.2644 18.032 20.2644Z" fill="url(#paint18_linear_482_8949)"/>
<path d="M17.3826 23.7067C18.7465 23.6418 19.9806 23.1222 20.1755 22.6675C20.3703 22.1479 19.461 21.8232 18.097 21.8881C16.7331 21.9531 15.434 22.4077 15.2392 22.9273C15.0443 23.4469 16.0186 23.7717 17.3826 23.7067Z" fill="url(#paint19_linear_482_8949)"/>
<path d="M17.7067 27.3443C19.0706 27.1494 20.2397 26.6298 20.3047 26.1102C20.3697 25.5906 19.2655 25.3308 17.9015 25.5256C16.5375 25.7205 15.3035 26.2401 15.2385 26.7597C15.2385 27.2793 16.2777 27.5391 17.7067 27.3443Z" fill="url(#paint20_linear_482_8949)"/>
<path d="M19.201 31.1114C20.63 30.8516 21.6692 30.2021 21.5393 29.6825C21.4743 29.1629 20.2403 28.9681 18.8763 29.2279C17.4474 29.4877 16.4081 30.1372 16.4731 30.6568C16.538 31.2413 17.7721 31.4362 19.201 31.1114Z" fill="url(#paint21_linear_482_8949)"/>
<path d="M21.864 34.8135C23.228 34.4238 24.1373 33.7094 23.8775 33.1898C23.6177 32.6701 22.3187 32.6052 20.9547 32.9299C19.5908 33.3197 18.6165 34.0341 18.8763 34.5537C19.201 35.0733 20.5001 35.2032 21.864 34.8135Z" fill="url(#paint22_linear_482_8949)"/>
<path d="M25.6958 38.1914C26.8649 37.7367 27.5144 37.0872 27.1897 36.6325C26.8649 36.2428 25.6309 36.1779 24.4617 36.6325C23.2926 37.0872 22.5782 37.7367 22.9679 38.1914C23.2926 38.646 24.5267 38.646 25.6958 38.1914Z" fill="url(#paint23_linear_482_8949)"/>
<path d="M30.6325 41.3094C31.7366 40.7897 32.1913 40.0753 31.7366 39.6856C31.282 39.2959 29.983 39.4258 28.9437 39.9454C27.8396 40.465 27.32 41.1794 27.8396 41.5692C28.2942 41.8939 29.5283 41.829 30.6325 41.3094Z" fill="url(#paint24_linear_482_8949)"/>
<path d="M36.4779 43.7773C37.3872 43.1927 37.712 42.4783 37.1274 42.1535C36.6078 41.8288 35.3737 42.0236 34.4644 42.6082C33.5551 43.1927 33.2304 43.9072 33.8149 44.2319C34.3345 44.5567 35.5036 44.3618 36.4779 43.7773Z" fill="url(#paint25_linear_482_8949)"/>
<path d="M42.7131 45.6607C43.3626 45.1411 43.4276 44.6215 42.9729 44.4267C42.4533 44.2318 41.544 44.4267 40.8945 44.9463C40.245 45.4659 40.18 45.9855 40.6347 46.1803C41.1543 46.3752 42.0636 46.1154 42.7131 45.6607Z" fill="url(#paint26_linear_482_8949)"/>
<path d="M49.5331 46.8941C50.0527 46.3745 50.0527 45.8549 49.4682 45.6601C48.8836 45.5302 48.0392 45.79 47.5196 46.3096C47 46.8292 47 47.4137 47.5846 47.5436C48.1691 47.7385 49.0135 47.4137 49.5331 46.8941Z" fill="url(#paint27_linear_482_8949)"/>
<path d="M58.2365 4.67682C58.3664 4.93662 58.9509 5.19642 59.5355 5.19642C60.12 5.26137 60.5097 5.06652 60.3798 4.80672C60.2499 4.54691 59.6654 4.28711 59.0808 4.28711C58.4963 4.28711 58.1066 4.41701 58.2365 4.67682Z" fill="url(#paint28_linear_482_8949)"/>
<path d="M55.4434 4.61091C55.6383 4.87071 56.2228 5.13051 56.8723 5.13051C57.4569 5.13051 57.7816 4.93566 57.6517 4.67586C57.4569 4.41605 56.8723 4.2212 56.2878 4.15625C55.6383 4.15625 55.2485 4.3511 55.4434 4.61091Z" fill="url(#paint29_linear_482_8949)"/>
<path d="M52.5859 4.74129C52.8457 5.00109 53.4952 5.19594 54.0798 5.19594C54.6643 5.19594 54.9891 4.93614 54.7293 4.67634C54.4695 4.41653 53.82 4.22168 53.2354 4.22168C52.6509 4.22168 52.3261 4.48148 52.5859 4.74129Z" fill="url(#paint30_linear_482_8949)"/>
<path d="M49.9228 4.93649C50.1826 5.1963 50.962 5.39115 51.5465 5.3262C52.1311 5.26125 52.3909 5.0664 52.0662 4.80659C51.8063 4.54679 51.0919 4.35193 50.5073 4.41689C49.8578 4.41689 49.598 4.67669 49.9228 4.93649Z" fill="url(#paint31_linear_482_8949)"/>
<path d="M47.1948 5.32572C47.5196 5.58552 48.299 5.71543 48.8835 5.65047C49.4681 5.58552 49.663 5.32572 49.3382 5.06592C49.0135 4.80611 48.234 4.67621 47.6495 4.74116C47.0649 4.80611 46.8051 5.06592 47.1948 5.32572Z" fill="url(#paint32_linear_482_8949)"/>
<path d="M44.3369 5.84598C44.7266 6.10578 45.571 6.23568 46.1555 6.10578C46.7401 5.97588 46.87 5.71608 46.4803 5.45627C46.0906 5.19647 45.3111 5.06657 44.7266 5.19647C44.0771 5.32637 43.9472 5.58617 44.3369 5.84598Z" fill="url(#paint33_linear_482_8949)"/>
<path d="M41.4793 6.56016C41.934 6.81997 42.7784 6.88492 43.3629 6.75502C43.8825 6.62511 43.9475 6.36531 43.4928 6.10551C43.0382 5.8457 42.1938 5.78075 41.6092 5.91065C41.0896 6.04056 41.0247 6.30036 41.4793 6.56016Z" fill="url(#paint34_linear_482_8949)"/>
<path d="M30.3726 11.9509C31.217 12.1458 32.3211 12.0159 32.8407 11.6911C33.2954 11.3664 33.0356 11.0416 32.1912 10.8467C31.3469 10.6519 30.2427 10.7818 29.7231 11.0416C29.2035 11.3664 29.4633 11.7561 30.3726 11.9509Z" fill="url(#paint35_linear_482_8949)"/>
<path d="M28.0341 14.0294C29.0084 14.1593 30.1775 13.9644 30.6322 13.6397C31.0868 13.3149 30.6322 12.9252 29.7229 12.7304C28.7486 12.6005 27.5795 12.7304 27.1248 13.1201C26.6702 13.4448 27.0599 13.8345 28.0341 14.0294Z" fill="url(#paint36_linear_482_8949)"/>
<path d="M26.2157 16.3021C27.2549 16.367 28.3591 16.1722 28.6838 15.7825C29.0086 15.3927 28.489 15.068 27.5147 14.9381C26.4755 14.8731 25.3713 15.068 24.9816 15.4577C24.6569 15.8474 25.1765 16.2371 26.2157 16.3021Z" fill="url(#paint37_linear_482_8949)"/>
<path d="M24.7868 19.0308C26.0209 19.0308 27.2549 18.706 27.5797 18.2514C27.9044 17.7967 27.125 17.407 25.9559 17.3421C24.7219 17.2771 23.4878 17.6668 23.163 18.1215C22.7733 18.6411 23.5527 19.0308 24.7868 19.0308Z" fill="url(#paint38_linear_482_8949)"/>
<path d="M24.1375 21.9534C25.4365 21.8884 26.6706 21.4338 26.8654 20.9791C27.0603 20.4595 26.151 20.1348 24.8519 20.1348C23.5529 20.1997 22.2539 20.5894 22.059 21.109C21.8642 21.6286 22.8385 22.0183 24.1375 21.9534Z" fill="url(#paint39_linear_482_8949)"/>
<path d="M24.2668 25.0065C25.6307 24.8766 26.7998 24.292 26.8648 23.7724C26.9297 23.2528 25.8905 22.928 24.5266 23.0579C23.1626 23.1878 21.9935 23.7075 21.8636 24.292C21.7986 24.8116 22.9028 25.1364 24.2668 25.0065Z" fill="url(#paint40_linear_482_8949)"/>
<path d="M25.3066 28.1885C26.6706 27.9287 27.7098 27.3442 27.6448 26.7596C27.5799 26.24 26.4108 25.9802 25.0468 26.175C23.6828 26.4348 22.5786 27.0194 22.6436 27.604C22.7085 28.1885 23.9426 28.4483 25.3066 28.1885Z" fill="url(#paint41_linear_482_8949)"/>
<path d="M27.3846 31.4365C28.8135 31.1117 29.7878 30.3323 29.528 29.8127C29.2682 29.2281 27.9692 29.0982 26.5403 29.423C25.1113 29.7478 24.0721 30.5272 24.3319 31.1117C24.5268 31.6313 25.8907 31.7612 27.3846 31.4365Z" fill="url(#paint42_linear_482_8949)"/>
<path d="M30.3728 34.4891C31.8018 34.0344 32.6461 33.1901 32.2564 32.6055C31.8667 32.021 30.3728 31.956 28.879 32.4107C27.3851 32.8653 26.5407 33.7097 26.9304 34.2943C27.3851 34.9438 28.9439 35.0087 30.3728 34.4891Z" fill="url(#paint43_linear_482_8949)"/>
<path d="M34.1395 37.1523C35.3087 36.6327 35.8283 35.9182 35.3087 35.4636C34.854 35.0089 33.555 35.0739 32.3859 35.5285C31.2167 35.9832 30.6971 36.7626 31.1518 37.2172C31.6714 37.6719 32.9704 37.6719 34.1395 37.1523Z" fill="url(#paint44_linear_482_8949)"/>
<path d="M38.881 39.5555C39.9203 38.971 40.31 38.1916 39.7254 37.8019C39.1408 37.4122 37.7769 37.5421 36.7377 38.1266C35.6335 38.7112 35.2438 39.4906 35.8933 39.8803C36.4129 40.3349 37.7769 40.1401 38.881 39.5555Z" fill="url(#paint45_linear_482_8949)"/>
<path d="M44.077 41.5035C44.9213 40.919 45.0512 40.2045 44.4667 39.8798C43.8172 39.555 42.648 39.8148 41.7387 40.3994C40.8944 40.9839 40.6995 41.6984 41.349 42.0231C41.9985 42.3479 43.2326 42.0881 44.077 41.5035Z" fill="url(#paint46_linear_482_8949)"/>
<path d="M49.8579 42.9322C50.5724 42.2827 50.5724 41.5682 49.8579 41.3084C49.1434 41.0486 47.9094 41.3734 47.1949 42.0229C46.4155 42.6724 46.4155 43.4518 47.1949 43.7116C47.9094 43.9714 49.0785 43.5817 49.8579 42.9322Z" fill="url(#paint47_linear_482_8949)"/>
<path d="M55.7035 43.7773C56.2881 43.1278 56.0932 42.4782 55.3788 42.2834C54.6643 42.0885 53.5601 42.4782 52.9756 43.1927C52.391 43.8422 52.5859 44.5567 53.3003 44.6866C54.0797 44.8814 55.119 44.4268 55.7035 43.7773Z" fill="url(#paint48_linear_482_8949)"/>
<path d="M61.3539 44.102C61.6786 43.5174 61.4838 42.9978 60.8342 42.9328C60.1847 42.8679 59.3404 43.2576 59.0156 43.8422C58.6259 44.4267 58.8857 44.9463 59.5352 45.0762C60.1847 45.0762 61.0291 44.6865 61.3539 44.102Z" fill="url(#paint49_linear_482_8949)"/>
<path d="M66.9398 43.9074C67.1347 43.3878 66.8099 42.9331 66.2254 42.8682C65.6408 42.8682 64.9264 43.2579 64.7315 43.7775C64.5366 44.2971 64.7964 44.7517 65.446 44.8167C66.0305 44.8816 66.745 44.427 66.9398 43.9074Z" fill="url(#paint50_linear_482_8949)"/>
<path d="M72.2014 43.3221C72.3313 42.8025 71.9416 42.4128 71.357 42.4778C70.7724 42.4778 70.2528 42.9324 70.1229 43.452C69.993 43.9717 70.3827 44.3614 70.9673 44.2964C71.5518 44.2315 72.0715 43.7768 72.2014 43.3221Z" fill="url(#paint51_linear_482_8949)"/>
<path d="M84.0869 10.2627C83.7621 10.2627 83.5673 10.3926 83.6972 10.6524C83.8271 10.8473 84.1518 11.0421 84.5415 11.1071C84.8663 11.1071 85.0612 10.9772 84.9313 10.7174C84.8014 10.5225 84.4116 10.3276 84.0869 10.2627Z" fill="url(#paint52_linear_482_8949)"/>
<path d="M82.7875 9.1582C82.5276 9.1582 82.3977 9.35305 82.5926 9.54791C82.7874 9.74276 83.1122 9.87266 83.437 9.87266C83.6968 9.87266 83.8267 9.67781 83.6318 9.48296C83.437 9.28811 83.1122 9.1582 82.7875 9.1582Z" fill="url(#paint53_linear_482_8949)"/>
<path d="M81.2941 7.98921C81.0343 8.05416 80.9693 8.24901 81.2291 8.44387C81.4889 8.63872 81.9436 8.76862 82.2034 8.76862C82.4632 8.70367 82.5281 8.50882 82.2683 8.31396C82.0085 8.05416 81.5539 7.92426 81.2941 7.98921Z" fill="url(#paint54_linear_482_8949)"/>
<path d="M79.8003 6.95014C79.6054 7.01509 79.6054 7.20994 79.8652 7.40479C80.125 7.59965 80.5147 7.6646 80.7745 7.59965C80.9694 7.5347 80.9694 7.33984 80.7096 7.14499C80.4498 6.95014 79.9951 6.88519 79.8003 6.95014Z" fill="url(#paint55_linear_482_8949)"/>
<path d="M78.0464 6.04054C77.8515 6.17044 77.9814 6.36529 78.3062 6.56014C78.6309 6.755 79.0207 6.755 79.2155 6.69005C79.4104 6.56014 79.2805 6.36529 78.9557 6.23539C78.6309 5.97559 78.2412 5.91063 78.0464 6.04054Z" fill="url(#paint56_linear_482_8949)"/>
<path d="M76.2279 5.196C76.033 5.3259 76.2279 5.52076 76.5526 5.65066C76.8774 5.78056 77.2671 5.84551 77.462 5.71561C77.5919 5.58571 77.462 5.39086 77.1372 5.26095C76.8125 5.0661 76.4227 5.0661 76.2279 5.196Z" fill="url(#paint57_linear_482_8949)"/>
<path d="M74.6042 4.41671C74.4743 4.54661 74.6042 4.74146 74.929 4.87136C75.2537 5.00126 75.6434 5.06622 75.7733 4.93631C75.9032 4.80641 75.7733 4.61156 75.4486 4.48166C75.1238 4.2868 74.7991 4.2868 74.6042 4.41671Z" fill="url(#paint58_linear_482_8949)"/>
<path d="M72.7204 3.89698C72.5905 4.02688 72.7853 4.22173 73.1101 4.35164C73.4348 4.48154 73.8245 4.48154 73.9544 4.41659C74.0843 4.28668 73.8895 4.09183 73.5647 3.96193C73.24 3.83203 72.8503 3.76708 72.7204 3.89698Z" fill="url(#paint59_linear_482_8949)"/>
<path d="M70.7066 3.24782C70.5767 3.37772 70.7715 3.57257 71.1612 3.70247C71.486 3.83238 71.8757 3.83238 71.9407 3.70247C72.0706 3.57257 71.8757 3.37772 71.486 3.24782C71.1612 3.11792 70.8365 3.11792 70.7066 3.24782Z" fill="url(#paint60_linear_482_8949)"/>
<path d="M68.4989 2.59785C68.4339 2.72775 68.6288 2.9226 69.0185 3.05251C69.4082 3.18241 69.7329 3.11746 69.7979 2.98755C69.8629 2.85765 69.668 2.6628 69.2783 2.5329C68.9535 2.46795 68.5638 2.46795 68.4989 2.59785Z" fill="url(#paint61_linear_482_8949)"/>
<path d="M66.0957 2.01369C66.0308 2.14359 66.3555 2.40339 66.7452 2.46834C67.1349 2.59825 67.5246 2.5333 67.5896 2.40339C67.6545 2.27349 67.3298 2.07864 66.9401 1.94874C66.5504 1.81884 66.1607 1.88379 66.0957 2.01369Z" fill="url(#paint62_linear_482_8949)"/>
<path d="M63.627 1.49425C63.627 1.62415 63.8868 1.819 64.3414 1.94891C64.7311 2.01386 65.0559 2.01386 65.1208 1.819C65.1208 1.6891 64.861 1.49425 64.4064 1.36435C63.9517 1.2994 63.627 1.36435 63.627 1.49425Z" fill="url(#paint63_linear_482_8949)"/>
<path d="M60.8345 1.03917C60.8345 1.23402 61.2242 1.42888 61.6788 1.49383C62.1335 1.55878 62.4582 1.49383 62.4582 1.36393C62.4582 1.16907 62.0685 0.974221 61.6788 0.90927C61.2242 0.844319 60.8345 0.90927 60.8345 1.03917Z" fill="url(#paint64_linear_482_8949)"/>
<path d="M58.0415 0.714384C58.1065 0.844286 58.4312 1.03914 58.8209 1.10409C59.2106 1.16904 59.5354 1.10409 59.4704 0.909237C59.4055 0.779335 59.0807 0.584482 58.691 0.519531C58.3013 0.519531 58.0415 0.584482 58.0415 0.714384Z" fill="url(#paint65_linear_482_8949)"/>
<path d="M55.0536 0.454619C55.1185 0.584521 55.4433 0.714422 55.833 0.779373C56.2227 0.844324 56.4175 0.714422 56.3526 0.58452C56.2876 0.454618 55.9629 0.324717 55.5732 0.259766C55.1835 0.259766 54.9886 0.324717 55.0536 0.454619Z" fill="url(#paint66_linear_482_8949)"/>
<path d="M51.6113 0.325234C51.7412 0.520086 52.1959 0.649988 52.5856 0.714939C53.0402 0.714939 53.2351 0.649989 53.1701 0.455136C53.0402 0.260283 52.6505 0.130381 52.1959 0.0654297C51.7412 0.0654297 51.4814 0.130381 51.6113 0.325234Z" fill="url(#paint67_linear_482_8949)"/>
<path d="M47.9742 0.324755C48.1041 0.519608 48.6887 0.649509 49.1433 0.71446C49.598 0.71446 49.8578 0.584558 49.6629 0.389706C49.4681 0.194853 49.0134 0.0649509 48.4938 0C48.1041 0 47.8443 0.129902 47.9742 0.324755Z" fill="url(#paint68_linear_482_8949)"/>
<path d="M44.2716 0.454638C44.4665 0.64949 44.9861 0.779392 45.5057 0.779392C45.9604 0.779392 46.1552 0.64949 45.9604 0.454638C45.7655 0.259785 45.2459 0.129883 44.7912 0.129883C44.2716 0.129883 44.0768 0.259785 44.2716 0.454638Z" fill="url(#paint69_linear_482_8949)"/>
<path d="M40.1801 0.844305C40.4399 1.03916 41.0894 1.16906 41.609 1.16906C42.1286 1.10411 42.3235 0.909256 41.9987 0.714403C41.7389 0.51955 41.0894 0.389648 40.5698 0.389648C40.1151 0.454599 39.9203 0.584501 40.1801 0.844305Z" fill="url(#paint70_linear_482_8949)"/>
<path d="M35.6982 1.42933C36.088 1.68913 36.9323 1.81904 37.5818 1.75408C38.2313 1.68913 38.3612 1.42933 37.9715 1.16953C37.5818 0.974673 36.8024 0.779821 36.1529 0.844772C35.5034 0.909722 35.3085 1.16953 35.6982 1.42933Z" fill="url(#paint71_linear_482_8949)"/>
<path d="M31.3469 2.27333C31.8015 2.53313 32.6459 2.59808 33.2954 2.53313C33.88 2.46818 34.0099 2.20838 33.5552 1.94857C33.1006 1.75372 32.2562 1.62382 31.6067 1.68877C31.0221 1.75372 30.8922 2.01353 31.3469 2.27333Z" fill="url(#paint72_linear_482_8949)"/>
<path d="M26.5405 3.4425C27.19 3.7023 28.2292 3.76725 28.9436 3.63735C29.6581 3.50745 29.723 3.18269 29.0735 2.92289C28.489 2.66309 27.3848 2.59813 26.6704 2.72804C25.9559 2.92289 25.8909 3.24764 26.5405 3.4425Z" fill="url(#paint73_linear_482_8949)"/>
<path d="M21.799 5.06577C22.5135 5.32557 23.6826 5.32557 24.397 5.13072C25.1115 4.93586 25.0465 4.61111 24.3321 4.35131C23.6176 4.0915 22.4485 4.0915 21.734 4.28635C21.0196 4.48121 21.0196 4.80596 21.799 5.06577Z" fill="url(#paint74_linear_482_8949)"/>
<path d="M17.1225 6.94947C17.9019 7.14432 18.9411 7.14432 19.5906 6.94947C20.1752 6.75461 20.0453 6.42986 19.3308 6.23501C18.6163 6.04015 17.5122 6.04015 16.9276 6.23501C16.2781 6.42986 16.408 6.75461 17.1225 6.94947Z" fill="url(#paint75_linear_482_8949)"/>
<path d="M12.5762 9.41828C13.3556 9.54819 14.3948 9.48323 14.9144 9.28838C15.434 9.09353 15.2392 8.76877 14.4598 8.63887C13.6804 8.50897 12.6412 8.57392 12.1215 8.76877C11.6019 8.96363 11.7968 9.22343 12.5762 9.41828Z" fill="url(#paint76_linear_482_8949)"/>
<path d="M8.22426 12.3404C9.00367 12.4703 9.97794 12.3404 10.3676 12.0806C10.8223 11.8208 10.4975 11.561 9.71813 11.4961C8.93872 11.4311 7.96446 11.4961 7.57475 11.7559C7.1201 11.9507 7.44485 12.2105 8.22426 12.3404Z" fill="url(#paint77_linear_482_8949)"/>
<path d="M4.19744 15.8482C5.0418 15.9131 6.08101 15.7183 6.47072 15.4585C6.86042 15.1987 6.47072 14.8739 5.62636 14.8739C4.78199 14.809 3.74278 15.0038 3.35307 15.2636C2.96337 15.5234 3.35307 15.8482 4.19744 15.8482Z" fill="url(#paint78_linear_482_8949)"/>
<path d="M1.07958 19.8751C1.85899 19.8751 2.76831 19.6803 3.02811 19.4205C3.28791 19.1607 2.83326 18.9658 2.05385 18.9658C1.20948 18.9658 0.365122 19.1607 0.105318 19.4205C-0.219437 19.6803 0.23522 19.8751 1.07958 19.8751Z" fill="url(#paint79_linear_482_8949)"/>
<path d="M80.7745 8.6387C81.0992 8.83355 81.0992 9.09336 80.8394 9.22326C80.5796 9.28821 80.06 9.22326 79.7353 8.96345C79.4105 8.70365 79.4105 8.5088 79.6703 8.3789C79.9951 8.31394 80.4497 8.3789 80.7745 8.6387Z" fill="url(#paint80_linear_482_8949)"/>
<path d="M77.9167 7.2099C77.6569 7.33981 77.7218 7.53466 78.0466 7.79446C78.3713 7.98931 78.8909 8.11922 79.1507 7.98931C79.4105 7.85941 79.3456 7.66456 79.0208 7.40476C78.6961 7.2099 78.1765 7.14495 77.9167 7.2099Z" fill="url(#paint81_linear_482_8949)"/>
<path d="M76.3573 6.36518C76.0975 6.49508 76.2274 6.75488 76.6171 6.94974C76.9419 7.14459 77.4615 7.20954 77.6563 7.07964C77.8512 6.94974 77.7863 6.68993 77.3965 6.56003C77.0068 6.36518 76.5522 6.30023 76.3573 6.36518Z" fill="url(#paint82_linear_482_8949)"/>
<path d="M74.799 5.71534C74.6041 5.84524 74.734 6.10504 75.1237 6.23495C75.5135 6.4298 75.9681 6.4298 76.163 6.2999C76.3578 6.17 76.2279 5.91019 75.8382 5.78029C75.4485 5.65039 74.9938 5.58544 74.799 5.71534Z" fill="url(#paint83_linear_482_8949)"/>
<path d="M73.1101 5.06589C72.9153 5.1958 73.1101 5.4556 73.4998 5.5855C73.8895 5.7154 74.3442 5.78035 74.4741 5.65045C74.604 5.52055 74.4741 5.26075 74.0844 5.13084C73.6947 4.93599 73.305 4.87104 73.1101 5.06589Z" fill="url(#paint84_linear_482_8949)"/>
<path d="M71.2913 4.41676C71.1614 4.54666 71.3563 4.80647 71.746 4.93637C72.1357 5.06627 72.5903 5.06627 72.6553 4.93637C72.7852 4.80647 72.5903 4.54666 72.2006 4.41676C71.8759 4.28686 71.4212 4.28686 71.2913 4.41676Z" fill="url(#paint85_linear_482_8949)"/>
<path d="M69.3426 3.83205C69.2127 3.96195 69.4725 4.22175 69.8622 4.35166C70.2519 4.48156 70.6417 4.48156 70.7716 4.2867C70.8365 4.1568 70.6416 3.897 70.2519 3.7671C69.8622 3.63719 69.4725 3.70215 69.3426 3.83205Z" fill="url(#paint86_linear_482_8949)"/>
<path d="M67.2648 3.31216C67.1998 3.44206 67.4596 3.70186 67.9143 3.83176C68.304 3.96166 68.6937 3.89671 68.7586 3.76681C68.8236 3.63691 68.5638 3.37711 68.1741 3.31216C67.7194 3.1173 67.3297 3.1173 67.2648 3.31216Z" fill="url(#paint87_linear_482_8949)"/>
<path d="M64.9912 2.79308C64.9262 2.92298 65.251 3.18278 65.7056 3.24773C66.0954 3.31269 66.4851 3.31269 66.4851 3.11783C66.4851 2.98793 66.2253 2.72813 65.7706 2.66318C65.3809 2.59822 65.0561 2.66318 64.9912 2.79308Z" fill="url(#paint88_linear_482_8949)"/>
<path d="M62.5884 2.40344C62.5884 2.59829 62.9131 2.79314 63.3678 2.85809C63.7575 2.92304 64.1472 2.85809 64.1472 2.72819C64.1472 2.53334 63.8224 2.33848 63.3678 2.27353C62.9781 2.14363 62.5884 2.27353 62.5884 2.40344Z" fill="url(#paint89_linear_482_8949)"/>
<path d="M60.0549 2.07834C60.1199 2.2732 60.4446 2.46805 60.8993 2.533C61.3539 2.59795 61.6137 2.533 61.6137 2.33815C61.5488 2.14329 61.224 2.01339 60.7694 1.94844C60.3147 1.81854 59.99 1.88349 60.0549 2.07834Z" fill="url(#paint90_linear_482_8949)"/>
<path d="M57.1325 1.81869C57.1975 2.01354 57.7171 2.2084 58.1717 2.27335C58.6913 2.3383 59.0161 2.2084 58.9511 2.01354C58.8862 1.81869 58.4315 1.62384 57.9119 1.55889C57.3923 1.49394 57.0676 1.62384 57.1325 1.81869Z" fill="url(#paint91_linear_482_8949)"/>
<path d="M54.2745 1.68881C54.4044 1.88366 54.859 2.07851 55.3137 2.07851C55.7683 2.14347 56.0281 2.01356 55.9632 1.81871C55.8333 1.62386 55.3786 1.42901 54.924 1.42901C54.4693 1.36405 54.1446 1.49396 54.2745 1.68881Z" fill="url(#paint92_linear_482_8949)"/>
<path d="M51.0918 1.68853C51.2867 1.88339 51.8063 2.07824 52.3259 2.07824C52.8455 2.07824 53.1053 1.94834 52.9754 1.68853C52.7806 1.55863 52.2609 1.36378 51.7413 1.29883C51.2217 1.29883 50.897 1.49368 51.0918 1.68853Z" fill="url(#paint93_linear_482_8949)"/>
<path d="M47.7796 1.81842C48.0394 2.01327 48.6239 2.20812 49.1435 2.20812C49.6631 2.20812 49.923 2.01327 49.6631 1.81842C49.4683 1.62356 48.8188 1.42871 48.2992 1.42871C47.8445 1.42871 47.5847 1.62356 47.7796 1.81842Z" fill="url(#paint94_linear_482_8949)"/>
<path d="M44.2716 2.14318C44.5964 2.33803 45.2459 2.53288 45.8304 2.46793C46.35 2.40298 46.6098 2.20813 46.2851 2.01328C46.0253 1.81842 45.3108 1.62357 44.7912 1.68852C44.2066 1.68852 44.0118 1.88337 44.2716 2.14318Z" fill="url(#paint95_linear_482_8949)"/>
<path d="M40.4397 2.66307C40.8294 2.92288 41.7387 3.11773 42.3882 2.98783C43.0377 2.92288 43.2326 2.66307 42.8429 2.40327C42.4532 2.14347 41.5439 1.94861 40.8944 2.01357C40.2448 2.14347 40.05 2.40327 40.4397 2.66307Z" fill="url(#paint96_linear_482_8949)"/>
<path d="M36.6727 3.37723C37.1923 3.63703 38.1016 3.76693 38.7512 3.63703C39.4007 3.50713 39.5306 3.24733 39.0759 2.98752C38.6213 2.72772 37.647 2.59782 36.9975 2.72772C36.348 2.85762 36.2181 3.11742 36.6727 3.37723Z" fill="url(#paint97_linear_482_8949)"/>
<path d="M32.7107 4.41717C33.2953 4.67698 34.3995 4.80688 35.1139 4.61203C35.8284 4.48213 35.8933 4.09242 35.2438 3.83262C34.6593 3.57281 33.5551 3.44291 32.9056 3.63776C32.1911 3.83262 32.1262 4.15737 32.7107 4.41717Z" fill="url(#paint98_linear_482_8949)"/>
<path d="M28.8787 5.7158C29.5282 5.97561 30.5675 5.97561 31.217 5.8457C31.8665 5.65085 31.8015 5.3261 31.152 5.13124C30.5025 4.87144 29.4633 4.87144 28.8138 5.00134C28.1643 5.1962 28.2292 5.52095 28.8787 5.7158Z" fill="url(#paint99_linear_482_8949)"/>
<path d="M24.9164 7.40456C25.6958 7.59942 26.8649 7.59942 27.5144 7.40456C28.1639 7.14476 28.034 6.82001 27.2546 6.5602C26.4752 6.36535 25.3061 6.36535 24.6566 6.5602C24.0071 6.82001 24.137 7.20971 24.9164 7.40456Z" fill="url(#paint100_linear_482_8949)"/>
<path d="M21.1495 9.48307C21.9939 9.67792 23.163 9.61297 23.7476 9.35317C24.3321 9.09336 24.0723 8.70366 23.228 8.5088C22.3836 8.31395 21.2145 8.3789 20.6299 8.63871C20.0454 8.89851 20.2402 9.28822 21.1495 9.48307Z" fill="url(#paint101_linear_482_8949)"/>
<path d="M17.3819 12.0154C18.4861 12.2103 19.915 12.0154 20.4996 11.6907C21.0842 11.3659 20.6944 10.9113 19.6552 10.7164C18.5511 10.5216 17.1871 10.7164 16.5376 11.0412C15.8881 11.4309 16.2778 11.8855 17.3819 12.0154Z" fill="url(#paint102_linear_482_8949)"/>
<path d="M14.2644 14.9383C15.4985 15.0682 16.8624 14.8084 17.447 14.4187C17.9666 14.029 17.447 13.5743 16.2779 13.5094C15.0438 13.3795 13.6799 13.6393 13.0953 14.029C12.5107 14.4187 13.0953 14.8733 14.2644 14.9383Z" fill="url(#paint103_linear_482_8949)"/>
<path d="M11.8613 18.2507C12.9655 18.3157 14.1995 17.9909 14.5893 17.6012C14.979 17.2115 14.3944 16.8867 13.2253 16.8218C12.1211 16.7568 10.8871 17.0816 10.4973 17.4713C10.1076 17.861 10.7571 18.1858 11.8613 18.2507Z" fill="url(#paint104_linear_482_8949)"/>
<path d="M10.0429 22.1487C11.4718 22.0838 12.9008 21.694 13.2255 21.1744C13.5503 20.6548 12.7059 20.3301 11.277 20.3301C9.84807 20.395 8.41915 20.7847 8.02945 21.3043C7.70469 21.8239 8.61401 22.1487 10.0429 22.1487Z" fill="url(#paint105_linear_482_8949)"/>
<path d="M9.45823 26.1107C10.8222 25.9808 11.9913 25.5261 12.1862 25.0065C12.381 24.5518 11.4068 24.2271 10.1077 24.357C8.74377 24.4869 7.5097 24.9415 7.31485 25.3962C7.18495 25.9808 8.15921 26.2406 9.45823 26.1107Z" fill="url(#paint106_linear_482_8949)"/>
<path d="M10.1081 30.4621C11.537 30.2023 12.7061 29.6177 12.7711 29.1631C12.836 28.6435 11.7318 28.4486 10.3029 28.6435C8.874 28.8383 7.70488 29.4878 7.63993 29.9425C7.57498 30.4621 8.67915 30.7219 10.1081 30.4621Z" fill="url(#paint107_linear_482_8949)"/>
<path d="M12.1867 34.8785C13.5506 34.5537 14.5898 33.9042 14.5249 33.3846C14.395 32.865 13.2259 32.7351 11.797 33.0599C10.368 33.3846 9.32881 34.0341 9.45872 34.5537C9.58862 35.0084 10.8227 35.1383 12.1867 34.8785Z" fill="url(#paint108_linear_482_8949)"/>
<path d="M15.7583 38.9709C17.0573 38.5812 17.8367 37.8667 17.6419 37.4121C17.3821 36.9574 16.148 36.9574 14.9139 37.3471C13.6149 37.7368 12.7706 38.4513 13.0304 38.906C13.2252 39.3606 14.4593 39.4256 15.7583 38.9709Z" fill="url(#paint109_linear_482_8949)"/>
<path d="M20.6297 42.7374C21.6689 42.3477 22.2535 41.6982 21.9287 41.3085C21.6039 40.9837 20.4998 40.9837 19.4606 41.4384C18.4213 41.8281 17.8368 42.4776 18.1615 42.8673C18.5513 43.192 19.6554 43.192 20.6297 42.7374Z" fill="url(#paint110_linear_482_8949)"/>
<path d="M26.7999 45.9205C27.5793 45.4009 27.8391 45.0112 27.5144 44.6865C27.2546 44.4916 26.2154 44.5566 25.5009 44.9463C24.6565 45.336 24.2668 45.9205 24.6565 46.1803C25.1112 46.5051 25.9556 46.3752 26.7999 45.9205Z" fill="url(#paint111_linear_482_8949)"/>
<path d="M40.7644 6.8848C40.2448 6.68995 39.5304 6.625 38.9458 6.625V7.66421C39.5304 7.79412 40.3098 7.79412 40.7644 7.66421C41.349 7.46936 41.349 7.14461 40.7644 6.8848Z" fill="url(#paint112_linear_482_8949)"/>
<path d="M33.6851 9.02832C33.1655 9.02832 32.7109 9.09327 32.3861 9.28812C31.7366 9.54793 31.9315 10.0026 32.8408 10.2624C33.1006 10.3273 33.4253 10.3923 33.6851 10.3923V9.02832Z" fill="url(#paint113_linear_482_8949)"/>
<path d="M79.0855 42.997C79.6051 43.4517 80.1896 43.5166 80.3845 43.5166C81.5536 43.5166 81.6835 42.4774 81.6835 42.2176C81.6835 41.3732 81.1639 41.0485 80.3195 40.4639C79.2803 39.7495 79.0205 39.2948 79.0205 38.5154C79.0205 36.8916 80.5144 36.7617 80.9041 36.7617C81.4886 36.7617 81.8783 36.9566 82.0732 37.0215V37.736C81.8134 37.5411 81.4237 37.4112 80.9041 37.4112C80.5144 37.4112 79.735 37.6061 79.735 38.4504C79.735 39.1649 80.1247 39.4247 80.7092 39.9443C82.0083 40.9186 82.398 41.2433 82.398 42.2176C82.398 43.4517 81.5536 44.2311 80.4494 44.2311C79.9948 44.2311 79.4752 44.1012 79.0855 43.9063V42.997Z" fill="#007C47"/>
<path d="M86.9446 42.3482C86.9446 42.9328 86.9446 43.4524 87.0096 43.972H86.425C86.425 43.7122 86.425 43.5823 86.36 43.1926C86.2951 43.4524 85.9054 44.0369 84.9961 44.0369C83.827 44.0369 83.5022 43.1926 83.5022 42.3482V38.646H84.0868V42.2183C84.0868 42.608 84.0868 43.4524 85.061 43.4524C85.7755 43.4524 86.2951 42.7379 86.2951 41.8936V38.5811H86.8797V42.3482H86.9446Z" fill="#007C47"/>
<path d="M90.7766 36.6973H92.1406C93.5045 36.6973 94.3489 37.2818 94.3489 38.7757C94.3489 40.3345 93.2447 40.8541 92.3354 40.8541H91.4261V44.0367H90.7766V36.6973ZM91.4261 40.2046H92.0756C93.0499 40.2046 93.6994 39.8799 93.6994 38.7757C93.6994 37.3468 92.5952 37.3468 92.0107 37.3468H91.4261V40.2046Z" fill="#007C47"/>
<path d="M95.3882 40.3342C95.3882 39.7497 95.3882 39.2301 95.3232 38.7105H95.9078C95.9078 39.0352 95.9078 39.36 95.9728 39.5548C96.3625 38.7754 96.8171 38.6455 97.4017 38.6455V39.295C96.4274 39.295 95.9728 39.6847 95.9728 40.7239V44.1014H95.3882V40.3342Z" fill="#007C47"/>
<path d="M98.1812 36.5674H98.8956V37.5416H98.1812V36.5674ZM98.2461 38.7108H98.8307V44.0367H98.2461V38.7108Z" fill="#007C47"/>
<path d="M100.259 40.3342C100.259 39.7497 100.259 39.2301 100.194 38.7105H100.779C100.779 38.9703 100.779 39.1002 100.844 39.4899C100.974 39.2301 101.298 38.6455 102.208 38.6455C103.702 38.6455 103.702 40.1394 103.702 40.4641V44.0364H103.052V40.4641C103.052 40.0744 103.052 39.2301 102.078 39.2301C101.363 39.2301 100.844 39.9445 100.844 40.7889V44.1014H100.259V40.3342Z" fill="#007C47"/>
<path d="M107.859 39.4904C107.599 39.2955 107.209 39.2306 106.885 39.2306C106.04 39.2306 105.326 39.8151 105.326 41.1791C105.326 43.1276 106.43 43.4524 106.95 43.4524C107.209 43.4524 107.664 43.3874 107.859 43.1926L107.924 43.907C107.664 44.0369 107.274 44.1019 106.885 44.1019C105.715 44.1019 104.676 43.1926 104.676 41.3739C104.676 39.7502 105.391 38.5811 106.885 38.5811C107.339 38.5811 107.599 38.646 107.859 38.7759V39.4904Z" fill="#007C47"/>
<path d="M108.768 36.5674H109.483V37.5416H108.768V36.5674ZM108.833 38.7108H109.418V44.0367H108.833V38.7108Z" fill="#007C47"/>
<path d="M110.717 40.4641C110.717 39.6198 110.717 39.1651 110.652 38.7105H111.236V39.4899C111.561 38.9053 112.016 38.6455 112.665 38.6455C114.419 38.6455 114.484 40.8538 114.484 41.1786C114.484 42.6725 113.964 44.1014 112.73 44.1014C112.081 44.1014 111.626 43.8416 111.366 43.3869V46.3097H110.782V40.4641H110.717ZM112.6 39.1651C111.561 39.1651 111.301 40.2043 111.301 41.3085C111.301 42.023 111.301 43.5168 112.6 43.5168C113.51 43.5168 113.834 42.5426 113.834 41.3085C113.834 40.9188 113.834 39.1651 112.6 39.1651Z" fill="#007C47"/>
<path d="M118.771 42.8029C118.771 43.1926 118.771 43.5823 118.835 43.972H118.316L118.251 43.1926C117.861 43.7771 117.472 44.0369 116.757 44.0369C115.913 44.0369 115.263 43.3874 115.263 42.4781C115.263 40.7894 117.082 40.7244 117.861 40.7244H118.251C118.251 40.0749 118.251 39.1007 117.147 39.1007C116.432 39.1007 115.848 39.6203 115.783 39.6852L115.718 39.0357C116.237 38.7759 116.627 38.5811 117.212 38.5811C118.835 38.5811 118.835 39.945 118.835 40.3347V42.8029H118.771ZM118.186 41.309C116.952 41.309 115.848 41.309 115.848 42.5431C115.848 42.9977 116.172 43.5173 116.822 43.5173C117.082 43.5173 118.121 43.3874 118.121 41.9585V41.309H118.186Z" fill="#007C47"/>
<path d="M120.134 36.1777H120.719V44.0368H120.134V36.1777Z" fill="#007C47"/>
<path d="M125.786 36.6973H126.5L128.903 43.9718H128.189L127.539 41.9583H124.616L123.967 43.9718H123.317L125.786 36.6973ZM124.876 41.4387H127.409L126.175 37.4117L124.876 41.4387Z" fill="#007C47"/>
<path d="M129.683 36.1777H130.267V44.0368H129.683V36.1777Z" fill="#007C47"/>
<path d="M131.696 36.5674H132.411V37.5416H131.696V36.5674ZM131.761 38.7108H132.346V44.0367H131.761V38.7108Z" fill="#007C47"/>
<path d="M136.957 42.8029C136.957 43.1926 136.957 43.5823 137.022 43.972H136.502L136.437 43.1926C136.047 43.7771 135.658 44.0369 134.943 44.0369C134.099 44.0369 133.449 43.3874 133.449 42.4781C133.449 40.7894 135.268 40.7244 136.047 40.7244H136.437C136.437 40.0749 136.437 39.1007 135.333 39.1007C134.618 39.1007 134.034 39.6203 133.969 39.6852L133.904 39.0357C134.423 38.7759 134.813 38.5811 135.398 38.5811C137.022 38.5811 137.022 39.945 137.022 40.3347V42.8029H136.957ZM136.372 41.309C135.138 41.309 134.034 41.309 134.034 42.5431C134.034 42.9977 134.359 43.5173 135.008 43.5173C135.268 43.5173 136.307 43.3874 136.307 41.9585V41.309H136.372Z" fill="#007C47"/>
<path d="M141.698 42.2836C141.698 43.128 141.698 43.5826 141.763 44.0373H141.178V43.3228C140.789 43.8424 140.464 44.1022 139.75 44.1022C137.996 44.1022 137.931 41.8939 137.931 41.1794C137.931 40.1402 138.386 38.6463 139.685 38.6463C140.334 38.6463 140.789 38.9062 141.049 39.4258V36.2432H141.633V42.2836H141.698ZM139.814 43.5177C140.854 43.5177 141.114 42.4785 141.114 41.3743C141.114 40.6598 141.114 39.166 139.814 39.166C138.905 39.166 138.58 40.1402 138.58 41.3743C138.645 41.8289 138.645 43.5177 139.814 43.5177Z" fill="#007C47"/>
<path d="M142.738 41.3735C142.738 40.0095 143.192 38.6455 144.751 38.6455C146.31 38.6455 146.765 40.0744 146.765 41.3735C146.765 42.7374 146.31 44.1014 144.751 44.1014C143.127 44.1014 142.738 42.6725 142.738 41.3735ZM146.05 41.3735C146.05 40.9188 146.05 39.1651 144.686 39.1651C143.322 39.1651 143.322 40.9188 143.322 41.3735C143.322 41.8281 143.322 43.5818 144.686 43.5818C146.05 43.5168 146.05 41.7632 146.05 41.3735Z" fill="#007C47"/>
<path d="M150.532 41.5683C150.532 43.5168 151.831 43.5168 152.026 43.5168C152.35 43.5168 152.87 43.322 153.195 43.0622V43.7766C152.935 43.9065 152.61 44.1014 151.961 44.1014C149.882 44.1014 149.882 41.8931 149.882 41.3735C149.882 39.36 150.857 38.6455 151.766 38.6455C153.325 38.6455 153.455 40.2693 153.455 41.5683H150.532ZM152.805 40.9837C152.805 39.5548 152.221 39.1651 151.701 39.1651C150.857 39.1651 150.467 40.2693 150.467 40.9837H152.805Z" fill="#007C47"/>
<path d="M154.494 40.3342C154.494 39.7497 154.494 39.2301 154.429 38.7105H155.014C155.014 38.9703 155.014 39.1002 155.078 39.4899C155.208 39.2301 155.533 38.6455 156.442 38.6455C157.936 38.6455 157.936 40.1394 157.936 40.4641V44.0364H157.352V40.4641C157.352 40.0744 157.352 39.2301 156.377 39.2301C155.663 39.2301 155.143 39.9445 155.143 40.7889V44.1014H154.559V40.3342H154.494Z" fill="#007C47"/>
<path d="M161.573 42.997C162.093 43.4517 162.677 43.5166 162.872 43.5166C164.041 43.5166 164.171 42.4774 164.171 42.2176C164.171 41.3732 163.652 41.0485 162.807 40.4639C161.768 39.7495 161.508 39.2948 161.508 38.5154C161.508 36.8916 163.002 36.7617 163.392 36.7617C163.976 36.7617 164.366 36.9566 164.561 37.0215V37.736C164.301 37.5411 163.911 37.4112 163.392 37.4112C163.002 37.4112 162.223 37.6061 162.223 38.4504C162.223 39.1649 162.612 39.4247 163.197 39.9443C164.496 40.9186 164.886 41.2433 164.886 42.2176C164.886 43.4517 164.041 44.2311 162.937 44.2311C162.483 44.2311 161.963 44.1012 161.573 43.9063V42.997Z" fill="#007C47"/>
<path d="M166.12 36.6973H169.238V37.2818H166.77V39.8799H169.108V40.5294H166.77V43.3872H169.303V43.9718H166.12V36.6973Z" fill="#007C47"/>
<path d="M173.329 40.0747H175.278V43.647C174.758 43.9068 174.174 44.0367 173.589 44.0367C171.056 44.0367 170.406 41.6336 170.406 40.2046C170.406 38.3211 171.511 36.5674 173.589 36.5674C174.174 36.5674 174.888 36.8272 175.148 36.8921V37.6066C174.888 37.4117 174.174 37.1519 173.589 37.1519C172.55 37.1519 171.121 37.9314 171.121 40.2696C171.121 41.6336 171.706 43.3872 173.654 43.3872C174.044 43.3872 174.304 43.3223 174.628 43.1924V40.6593H173.329V40.0747Z" fill="#007C47"/>
<path d="M176.772 36.6973H177.421V41.3088C177.421 42.4129 177.616 43.4522 178.915 43.4522C180.279 43.4522 180.409 42.283 180.409 41.3088V36.6973H181.058V41.3088C181.058 42.7377 180.604 44.1017 178.915 44.1017C177.226 44.1017 176.772 42.9326 176.772 41.3088V36.6973Z" fill="#007C47"/>
<path d="M182.682 36.6973H184.371C185.67 36.6973 186.32 37.4767 186.32 38.5808C186.32 39.8149 185.475 40.2046 184.891 40.3345C185.086 40.3995 185.475 40.4644 185.605 40.984L186.709 44.0367H185.995L185.086 41.5036C184.826 40.8541 184.631 40.5943 184.111 40.5943H183.267V43.9718H182.617V36.6973H182.682ZM183.332 40.0098H184.241C185.54 40.0098 185.605 38.8406 185.605 38.5808C185.605 37.3468 184.631 37.2818 184.176 37.2818H183.332V40.0098Z" fill="#007C47"/>
<path d="M187.814 36.6973H188.463V43.9718H187.814V36.6973Z" fill="#007C47"/>
<path d="M190.021 36.6973H190.996C193.399 36.6973 194.568 37.8664 194.568 40.2696C194.568 42.413 193.529 44.0367 191.191 44.0367H190.086V36.6973H190.021ZM190.671 43.3872H191.321C192.944 43.3872 193.854 42.1531 193.854 40.3345C193.854 39.1654 193.659 37.2818 191.256 37.2818H190.671V43.3872Z" fill="#007C47"/>
<path d="M197.491 36.6973H198.206L200.609 43.9718H199.895L199.245 41.9583H196.322L195.673 43.9718H195.023L197.491 36.6973ZM196.582 41.4387H199.115L197.881 37.4117L196.582 41.4387Z" fill="#007C47"/>
<path d="M201.453 36.6973H202.427C204.831 36.6973 206 37.8664 206 40.2696C206 42.413 204.96 44.0367 202.622 44.0367H201.518V36.6973H201.453ZM202.103 43.3872H202.752C204.376 43.3872 205.285 42.1531 205.285 40.3345C205.285 39.1654 205.09 37.2818 202.687 37.2818H202.103V43.3872Z" fill="#007C47"/>
<defs>
<linearGradient id="paint0_linear_482_8949" x1="27.1177" y1="57.9959" x2="67.8954" y2="9.46316" gradientUnits="userSpaceOnUse">
<stop stop-color="#007C47"/>
<stop offset="0.9816" stop-color="#93C01F"/>
</linearGradient>
<linearGradient id="paint1_linear_482_8949" x1="25.5357" y1="56.6224" x2="66.2924" y2="8.11455" gradientUnits="userSpaceOnUse">
<stop stop-color="#007C47"/>
<stop offset="0.9816" stop-color="#93C01F"/>
</linearGradient>
<linearGradient id="paint2_linear_482_8949" x1="24.0554" y1="55.3677" x2="64.8071" y2="6.8659" gradientUnits="userSpaceOnUse">
<stop stop-color="#007C47"/>
<stop offset="0.9816" stop-color="#93C01F"/>
</linearGradient>
<linearGradient id="paint3_linear_482_8949" x1="22.4508" y1="54.0341" x2="63.209" y2="5.52469" gradientUnits="userSpaceOnUse">
<stop stop-color="#007C47"/>
<stop offset="0.9816" stop-color="#93C01F"/>
</linearGradient>
<linearGradient id="paint4_linear_482_8949" x1="20.9272" y1="52.7716" x2="61.6935" y2="4.25245" gradientUnits="userSpaceOnUse">
<stop stop-color="#007C47"/>
<stop offset="0.9816" stop-color="#93C01F"/>
</linearGradient>
<linearGradient id="paint5_linear_482_8949" x1="19.3808" y1="51.4373" x2="60.1297" y2="2.93875" gradientUnits="userSpaceOnUse">
<stop stop-color="#007C47"/>
<stop offset="0.9816" stop-color="#93C01F"/>
</linearGradient>
<linearGradient id="paint6_linear_482_8949" x1="17.752" y1="50.1152" x2="58.5232" y2="1.59021" gradientUnits="userSpaceOnUse">
<stop stop-color="#007C47"/>
<stop offset="0.9816" stop-color="#93C01F"/>
</linearGradient>
<linearGradient id="paint7_linear_482_8949" x1="16.1308" y1="48.7112" x2="56.8801" y2="0.212264" gradientUnits="userSpaceOnUse">
<stop stop-color="#007C47"/>
<stop offset="0.9816" stop-color="#93C01F"/>
</linearGradient>
<linearGradient id="paint8_linear_482_8949" x1="14.4296" y1="47.3528" x2="55.2162" y2="-1.19051" gradientUnits="userSpaceOnUse">
<stop stop-color="#007C47"/>
<stop offset="0.9816" stop-color="#93C01F"/>
</linearGradient>
<linearGradient id="paint9_linear_482_8949" x1="12.758" y1="45.9338" x2="53.537" y2="-2.60058" gradientUnits="userSpaceOnUse">
<stop stop-color="#007C47"/>
<stop offset="0.9816" stop-color="#93C01F"/>
</linearGradient>
<linearGradient id="paint10_linear_482_8949" x1="11.0806" y1="44.5326" x2="51.8643" y2="-4.00729" gradientUnits="userSpaceOnUse">
<stop stop-color="#007C47"/>
<stop offset="0.9816" stop-color="#93C01F"/>
</linearGradient>
<linearGradient id="paint11_linear_482_8949" x1="9.44507" y1="43.1418" x2="50.2183" y2="-5.38564" gradientUnits="userSpaceOnUse">
<stop stop-color="#007C47"/>
<stop offset="0.9816" stop-color="#93C01F"/>
</linearGradient>
<linearGradient id="paint12_linear_482_8949" x1="7.85832" y1="41.8189" x2="48.6381" y2="-6.71622" gradientUnits="userSpaceOnUse">
<stop stop-color="#007C47"/>
<stop offset="0.9816" stop-color="#93C01F"/>
</linearGradient>
<linearGradient id="paint13_linear_482_8949" x1="5.0406" y1="39.4567" x2="45.8251" y2="-9.08412" gradientUnits="userSpaceOnUse">
<stop stop-color="#007C47"/>
<stop offset="0.9816" stop-color="#93C01F"/>
</linearGradient>
<linearGradient id="paint14_linear_482_8949" x1="3.92137" y1="38.5108" x2="44.7016" y2="-10.025" gradientUnits="userSpaceOnUse">
<stop stop-color="#007C47"/>
<stop offset="0.9816" stop-color="#93C01F"/>
</linearGradient>
<linearGradient id="paint15_linear_482_8949" x1="3.08541" y1="37.8022" x2="43.8604" y2="-10.7274" gradientUnits="userSpaceOnUse">
<stop stop-color="#007C47"/>
<stop offset="0.9816" stop-color="#93C01F"/>
</linearGradient>
<linearGradient id="paint16_linear_482_8949" x1="2.61273" y1="37.4027" x2="43.3846" y2="-11.1232" gradientUnits="userSpaceOnUse">
<stop stop-color="#007C47"/>
<stop offset="0.9816" stop-color="#93C01F"/>
</linearGradient>
<linearGradient id="paint17_linear_482_8949" x1="2.58844" y1="37.3903" x2="43.3687" y2="-11.1456" gradientUnits="userSpaceOnUse">
<stop stop-color="#007C47"/>
<stop offset="0.9816" stop-color="#93C01F"/>
</linearGradient>
<linearGradient id="paint18_linear_482_8949" x1="3.11339" y1="37.8314" x2="43.8952" y2="-10.7063" gradientUnits="userSpaceOnUse">
<stop stop-color="#007C47"/>
<stop offset="0.9816" stop-color="#93C01F"/>
</linearGradient>
<linearGradient id="paint19_linear_482_8949" x1="4.26585" y1="38.7988" x2="45.046" y2="-9.73684" gradientUnits="userSpaceOnUse">
<stop stop-color="#007C47"/>
<stop offset="0.9816" stop-color="#93C01F"/>
</linearGradient>
<linearGradient id="paint20_linear_482_8949" x1="6.10181" y1="40.3448" x2="46.8867" y2="-8.19645" gradientUnits="userSpaceOnUse">
<stop stop-color="#007C47"/>
<stop offset="0.9816" stop-color="#93C01F"/>
</linearGradient>
<linearGradient id="paint21_linear_482_8949" x1="8.66054" y1="42.4903" x2="49.4375" y2="-6.04167" gradientUnits="userSpaceOnUse">
<stop stop-color="#007C47"/>
<stop offset="0.9816" stop-color="#93C01F"/>
</linearGradient>
<linearGradient id="paint22_linear_482_8949" x1="11.9066" y1="45.215" x2="52.6785" y2="-3.31092" gradientUnits="userSpaceOnUse">
<stop stop-color="#007C47"/>
<stop offset="0.9816" stop-color="#93C01F"/>
</linearGradient>
<linearGradient id="paint23_linear_482_8949" x1="15.7612" y1="48.4566" x2="56.5371" y2="-0.0739149" gradientUnits="userSpaceOnUse">
<stop stop-color="#007C47"/>
<stop offset="0.9816" stop-color="#93C01F"/>
</linearGradient>
<linearGradient id="paint24_linear_482_8949" x1="20.0958" y1="52.1006" x2="60.8783" y2="3.5622" gradientUnits="userSpaceOnUse">
<stop stop-color="#007C47"/>
<stop offset="0.9816" stop-color="#93C01F"/>
</linearGradient>
<linearGradient id="paint25_linear_482_8949" x1="24.7282" y1="55.9906" x2="65.5047" y2="7.45919" gradientUnits="userSpaceOnUse">
<stop stop-color="#007C47"/>
<stop offset="0.9816" stop-color="#93C01F"/>
</linearGradient>
<linearGradient id="paint26_linear_482_8949" x1="29.4584" y1="59.9638" x2="70.2342" y2="11.4332" gradientUnits="userSpaceOnUse">
<stop stop-color="#007C47"/>
<stop offset="0.9816" stop-color="#93C01F"/>
</linearGradient>
<linearGradient id="paint27_linear_482_8949" x1="34.0784" y1="63.8557" x2="74.8699" y2="15.3065" gradientUnits="userSpaceOnUse">
<stop stop-color="#007C47"/>
<stop offset="0.9816" stop-color="#93C01F"/>
</linearGradient>
<linearGradient id="paint28_linear_482_8949" x1="19.7844" y1="51.828" x2="60.5584" y2="3.29963" gradientUnits="userSpaceOnUse">
<stop stop-color="#007C47"/>
<stop offset="0.9816" stop-color="#93C01F"/>
</linearGradient>
<linearGradient id="paint29_linear_482_8949" x1="18.1157" y1="50.3787" x2="58.8652" y2="1.87964" gradientUnits="userSpaceOnUse">
<stop stop-color="#007C47"/>
<stop offset="0.9816" stop-color="#93C01F"/>
</linearGradient>
<linearGradient id="paint30_linear_482_8949" x1="16.418" y1="49.0108" x2="57.1981" y2="0.475296" gradientUnits="userSpaceOnUse">
<stop stop-color="#007C47"/>
<stop offset="0.9816" stop-color="#93C01F"/>
</linearGradient>
<linearGradient id="paint31_linear_482_8949" x1="14.9448" y1="47.7767" x2="55.7263" y2="-0.760559" gradientUnits="userSpaceOnUse">
<stop stop-color="#007C47"/>
<stop offset="0.9816" stop-color="#93C01F"/>
</linearGradient>
<linearGradient id="paint32_linear_482_8949" x1="13.4796" y1="46.5548" x2="54.2669" y2="-1.98939" gradientUnits="userSpaceOnUse">
<stop stop-color="#007C47"/>
<stop offset="0.9816" stop-color="#93C01F"/>
</linearGradient>
<linearGradient id="paint33_linear_482_8949" x1="12.0508" y1="45.3594" x2="52.8417" y2="-3.18907" gradientUnits="userSpaceOnUse">
<stop stop-color="#007C47"/>
<stop offset="0.9816" stop-color="#93C01F"/>
</linearGradient>
<linearGradient id="paint34_linear_482_8949" x1="10.6891" y1="44.2027" x2="51.473" y2="-4.33745" gradientUnits="userSpaceOnUse">
<stop stop-color="#007C47"/>
<stop offset="0.9816" stop-color="#93C01F"/>
</linearGradient>
<linearGradient id="paint35_linear_482_8949" x1="6.58377" y1="40.754" x2="47.3689" y2="-7.78757" gradientUnits="userSpaceOnUse">
<stop stop-color="#007C47"/>
<stop offset="0.9816" stop-color="#93C01F"/>
</linearGradient>
<linearGradient id="paint36_linear_482_8949" x1="6.16164" y1="40.3919" x2="46.9408" y2="-8.14268" gradientUnits="userSpaceOnUse">
<stop stop-color="#007C47"/>
<stop offset="0.9816" stop-color="#93C01F"/>
</linearGradient>
<linearGradient id="paint37_linear_482_8949" x1="6.10038" y1="40.3487" x2="46.8882" y2="-8.19621" gradientUnits="userSpaceOnUse">
<stop stop-color="#007C47"/>
<stop offset="0.9816" stop-color="#93C01F"/>
</linearGradient>
<linearGradient id="paint38_linear_482_8949" x1="6.48466" y1="40.665" x2="47.2658" y2="-7.87194" gradientUnits="userSpaceOnUse">
<stop stop-color="#007C47"/>
<stop offset="0.9816" stop-color="#93C01F"/>
</linearGradient>
<linearGradient id="paint39_linear_482_8949" x1="7.36909" y1="41.403" x2="48.1452" y2="-7.12774" gradientUnits="userSpaceOnUse">
<stop stop-color="#007C47"/>
<stop offset="0.9816" stop-color="#93C01F"/>
</linearGradient>
<linearGradient id="paint40_linear_482_8949" x1="8.7968" y1="42.6133" x2="49.5858" y2="-5.93292" gradientUnits="userSpaceOnUse">
<stop stop-color="#007C47"/>
<stop offset="0.9816" stop-color="#93C01F"/>
</linearGradient>
<linearGradient id="paint41_linear_482_8949" x1="10.813" y1="44.2977" x2="51.5898" y2="-4.23409" gradientUnits="userSpaceOnUse">
<stop stop-color="#007C47"/>
<stop offset="0.9816" stop-color="#93C01F"/>
</linearGradient>
<linearGradient id="paint42_linear_482_8949" x1="13.3951" y1="46.4691" x2="54.1737" y2="-2.0647" gradientUnits="userSpaceOnUse">
<stop stop-color="#007C47"/>
<stop offset="0.9816" stop-color="#93C01F"/>
</linearGradient>
<linearGradient id="paint43_linear_482_8949" x1="16.505" y1="49.0822" x2="57.2849" y2="0.546839" gradientUnits="userSpaceOnUse">
<stop stop-color="#007C47"/>
<stop offset="0.9816" stop-color="#93C01F"/>
</linearGradient>
<linearGradient id="paint44_linear_482_8949" x1="20.0546" y1="52.0635" x2="60.8322" y2="3.53088" gradientUnits="userSpaceOnUse">
<stop stop-color="#007C47"/>
<stop offset="0.9816" stop-color="#93C01F"/>
</linearGradient>
<linearGradient id="paint45_linear_482_8949" x1="23.9185" y1="55.3165" x2="64.705" y2="6.77323" gradientUnits="userSpaceOnUse">
<stop stop-color="#007C47"/>
<stop offset="0.9816" stop-color="#93C01F"/>
</linearGradient>
<linearGradient id="paint46_linear_482_8949" x1="27.9619" y1="58.7018" x2="68.7317" y2="10.1784" gradientUnits="userSpaceOnUse">
<stop stop-color="#007C47"/>
<stop offset="0.9816" stop-color="#93C01F"/>
</linearGradient>
<linearGradient id="paint47_linear_482_8949" x1="32.0083" y1="62.1051" x2="72.7848" y2="13.5739" gradientUnits="userSpaceOnUse">
<stop stop-color="#007C47"/>
<stop offset="0.9816" stop-color="#93C01F"/>
</linearGradient>
<linearGradient id="paint48_linear_482_8949" x1="35.9165" y1="65.396" x2="76.7002" y2="16.8562" gradientUnits="userSpaceOnUse">
<stop stop-color="#007C47"/>
<stop offset="0.9816" stop-color="#93C01F"/>
</linearGradient>
<linearGradient id="paint49_linear_482_8949" x1="39.5685" y1="68.4529" x2="80.3399" y2="19.9277" gradientUnits="userSpaceOnUse">
<stop stop-color="#007C47"/>
<stop offset="0.9816" stop-color="#93C01F"/>
</linearGradient>
<linearGradient id="paint50_linear_482_8949" x1="42.8591" y1="71.2133" x2="83.6271" y2="22.692" gradientUnits="userSpaceOnUse">
<stop stop-color="#007C47"/>
<stop offset="0.9816" stop-color="#93C01F"/>
</linearGradient>
<linearGradient id="paint51_linear_482_8949" x1="45.7126" y1="73.6284" x2="86.4967" y2="25.088" gradientUnits="userSpaceOnUse">
<stop stop-color="#007C47"/>
<stop offset="0.9816" stop-color="#93C01F"/>
</linearGradient>
<linearGradient id="paint52_linear_482_8949" x1="37.3568" y1="66.5651" x2="78.1198" y2="18.0497" gradientUnits="userSpaceOnUse">
<stop stop-color="#007C47"/>
<stop offset="0.9816" stop-color="#93C01F"/>
</linearGradient>
<linearGradient id="paint53_linear_482_8949" x1="36.0799" y1="65.4899" x2="76.8418" y2="16.9757" gradientUnits="userSpaceOnUse">
<stop stop-color="#007C47"/>
<stop offset="0.9816" stop-color="#93C01F"/>
</linearGradient>
<linearGradient id="paint54_linear_482_8949" x1="34.6323" y1="64.4282" x2="75.4606" y2="15.8353" gradientUnits="userSpaceOnUse">
<stop stop-color="#007C47"/>
<stop offset="0.9816" stop-color="#93C01F"/>
</linearGradient>
<linearGradient id="paint55_linear_482_8949" x1="33.2881" y1="63.1888" x2="74.0692" y2="14.6519" gradientUnits="userSpaceOnUse">
<stop stop-color="#007C47"/>
<stop offset="0.9816" stop-color="#93C01F"/>
</linearGradient>
<linearGradient id="paint56_linear_482_8949" x1="31.8717" y1="61.946" x2="72.6301" y2="13.4361" gradientUnits="userSpaceOnUse">
<stop stop-color="#007C47"/>
<stop offset="0.9816" stop-color="#93C01F"/>
</linearGradient>
<linearGradient id="paint57_linear_482_8949" x1="30.4034" y1="60.7324" x2="71.1704" y2="12.2122" gradientUnits="userSpaceOnUse">
<stop stop-color="#007C47"/>
<stop offset="0.9816" stop-color="#93C01F"/>
</linearGradient>
<linearGradient id="paint58_linear_482_8949" x1="29.0581" y1="59.5627" x2="69.808" y2="11.0632" gradientUnits="userSpaceOnUse">
<stop stop-color="#007C47"/>
<stop offset="0.9816" stop-color="#93C01F"/>
</linearGradient>
<linearGradient id="paint59_linear_482_8949" x1="27.7681" y1="58.3682" x2="68.4689" y2="9.92706" gradientUnits="userSpaceOnUse">
<stop stop-color="#007C47"/>
<stop offset="0.9816" stop-color="#93C01F"/>
</linearGradient>
<linearGradient id="paint60_linear_482_8949" x1="26.178" y1="57.1907" x2="66.9482" y2="8.66691" gradientUnits="userSpaceOnUse">
<stop stop-color="#007C47"/>
<stop offset="0.9816" stop-color="#93C01F"/>
</linearGradient>
<linearGradient id="paint61_linear_482_8949" x1="24.5261" y1="55.9448" x2="65.3606" y2="7.34439" gradientUnits="userSpaceOnUse">
<stop stop-color="#007C47"/>
<stop offset="0.9816" stop-color="#93C01F"/>
</linearGradient>
<linearGradient id="paint62_linear_482_8949" x1="22.9222" y1="54.4931" x2="63.7099" y2="5.94841" gradientUnits="userSpaceOnUse">
<stop stop-color="#007C47"/>
<stop offset="0.9816" stop-color="#93C01F"/>
</linearGradient>
<linearGradient id="paint63_linear_482_8949" x1="21.1722" y1="53.067" x2="61.9804" y2="4.49806" gradientUnits="userSpaceOnUse">
<stop stop-color="#007C47"/>
<stop offset="0.9816" stop-color="#93C01F"/>
</linearGradient>
<linearGradient id="paint64_linear_482_8949" x1="19.4309" y1="51.4787" x2="60.1804" y2="2.97945" gradientUnits="userSpaceOnUse">
<stop stop-color="#007C47"/>
<stop offset="0.9816" stop-color="#93C01F"/>
</linearGradient>
<linearGradient id="paint65_linear_482_8949" x1="17.561" y1="49.8927" x2="58.3026" y2="1.40285" gradientUnits="userSpaceOnUse">
<stop stop-color="#007C47"/>
<stop offset="0.9816" stop-color="#93C01F"/>
</linearGradient>
<linearGradient id="paint66_linear_482_8949" x1="15.5708" y1="48.3012" x2="56.3516" y2="-0.23528" gradientUnits="userSpaceOnUse">
<stop stop-color="#007C47"/>
<stop offset="0.9816" stop-color="#93C01F"/>
</linearGradient>
<linearGradient id="paint67_linear_482_8949" x1="13.5416" y1="46.6086" x2="54.3291" y2="-1.93562" gradientUnits="userSpaceOnUse">
<stop stop-color="#007C47"/>
<stop offset="0.9816" stop-color="#93C01F"/>
</linearGradient>
<linearGradient id="paint68_linear_482_8949" x1="11.4793" y1="44.8226" x2="52.2387" y2="-3.68848" gradientUnits="userSpaceOnUse">
<stop stop-color="#007C47"/>
<stop offset="0.9816" stop-color="#93C01F"/>
</linearGradient>
<linearGradient id="paint69_linear_482_8949" x1="9.35648" y1="42.9901" x2="50.0876" y2="-5.48712" gradientUnits="userSpaceOnUse">
<stop stop-color="#007C47"/>
<stop offset="0.9816" stop-color="#93C01F"/>
</linearGradient>
<linearGradient id="paint70_linear_482_8949" x1="7.11886" y1="41.2037" x2="47.9031" y2="-7.33687" gradientUnits="userSpaceOnUse">
<stop stop-color="#007C47"/>
<stop offset="0.9816" stop-color="#93C01F"/>
</linearGradient>
<linearGradient id="paint71_linear_482_8949" x1="4.92546" y1="39.3187" x2="45.6825" y2="-9.18949" gradientUnits="userSpaceOnUse">
<stop stop-color="#007C47"/>
<stop offset="0.9816" stop-color="#93C01F"/>
</linearGradient>
<linearGradient id="paint72_linear_482_8949" x1="2.71851" y1="37.4557" x2="43.4687" y2="-11.0443" gradientUnits="userSpaceOnUse">
<stop stop-color="#007C47"/>
<stop offset="0.9816" stop-color="#93C01F"/>
</linearGradient>
<linearGradient id="paint73_linear_482_8949" x1="0.522601" y1="35.6752" x2="41.3173" y2="-12.8778" gradientUnits="userSpaceOnUse">
<stop stop-color="#007C47"/>
<stop offset="0.9816" stop-color="#93C01F"/>
</linearGradient>
<linearGradient id="paint74_linear_482_8949" x1="-1.53288" y1="33.9405" x2="39.2583" y2="-14.6084" gradientUnits="userSpaceOnUse">
<stop stop-color="#007C47"/>
<stop offset="0.9816" stop-color="#93C01F"/>
</linearGradient>
<linearGradient id="paint75_linear_482_8949" x1="-3.41352" y1="32.3527" x2="37.3712" y2="-16.1885" gradientUnits="userSpaceOnUse">
<stop stop-color="#007C47"/>
<stop offset="0.9816" stop-color="#93C01F"/>
</linearGradient>
<linearGradient id="paint76_linear_482_8949" x1="-5.01979" y1="30.9995" x2="35.7621" y2="-17.5383" gradientUnits="userSpaceOnUse">
<stop stop-color="#007C47"/>
<stop offset="0.9816" stop-color="#93C01F"/>
</linearGradient>
<linearGradient id="paint77_linear_482_8949" x1="-6.22667" y1="29.9767" x2="34.5444" y2="-18.5482" gradientUnits="userSpaceOnUse">
<stop stop-color="#007C47"/>
<stop offset="0.9816" stop-color="#93C01F"/>
</linearGradient>
<linearGradient id="paint78_linear_482_8949" x1="-6.90463" y1="29.4162" x2="33.8793" y2="-19.124" gradientUnits="userSpaceOnUse">
<stop stop-color="#007C47"/>
<stop offset="0.9816" stop-color="#93C01F"/>
</linearGradient>
<linearGradient id="paint79_linear_482_8949" x1="-6.876" y1="29.4379" x2="33.9035" y2="-19.097" gradientUnits="userSpaceOnUse">
<stop stop-color="#007C47"/>
<stop offset="0.9816" stop-color="#93C01F"/>
</linearGradient>
<linearGradient id="paint80_linear_482_8949" x1="34.0566" y1="63.7635" x2="74.8069" y2="15.2633" gradientUnits="userSpaceOnUse">
<stop stop-color="#007C47"/>
<stop offset="0.9816" stop-color="#93C01F"/>
</linearGradient>
<linearGradient id="paint81_linear_482_8949" x1="32.4282" y1="62.4884" x2="73.219" y2="13.94" gradientUnits="userSpaceOnUse">
<stop stop-color="#007C47"/>
<stop offset="0.9816" stop-color="#93C01F"/>
</linearGradient>
<linearGradient id="paint82_linear_482_8949" x1="31.0976" y1="61.3453" x2="71.8773" y2="12.8103" gradientUnits="userSpaceOnUse">
<stop stop-color="#007C47"/>
<stop offset="0.9816" stop-color="#93C01F"/>
</linearGradient>
<linearGradient id="paint83_linear_482_8949" x1="29.8741" y1="60.2712" x2="70.6339" y2="11.7596" gradientUnits="userSpaceOnUse">
<stop stop-color="#007C47"/>
<stop offset="0.9816" stop-color="#93C01F"/>
</linearGradient>
<linearGradient id="paint84_linear_482_8949" x1="28.5514" y1="59.1902" x2="69.3245" y2="10.6629" gradientUnits="userSpaceOnUse">
<stop stop-color="#007C47"/>
<stop offset="0.9816" stop-color="#93C01F"/>
</linearGradient>
<linearGradient id="paint85_linear_482_8949" x1="27.1879" y1="58.027" x2="67.9529" y2="9.50947" gradientUnits="userSpaceOnUse">
<stop stop-color="#007C47"/>
<stop offset="0.9816" stop-color="#93C01F"/>
</linearGradient>
<linearGradient id="paint86_linear_482_8949" x1="25.7088" y1="56.8734" x2="66.514" y2="8.30782" gradientUnits="userSpaceOnUse">
<stop stop-color="#007C47"/>
<stop offset="0.9816" stop-color="#93C01F"/>
</linearGradient>
<linearGradient id="paint87_linear_482_8949" x1="24.2213" y1="55.604" x2="65.0179" y2="7.0488" gradientUnits="userSpaceOnUse">
<stop stop-color="#007C47"/>
<stop offset="0.9816" stop-color="#93C01F"/>
</linearGradient>
<linearGradient id="paint88_linear_482_8949" x1="22.7083" y1="54.2375" x2="63.4609" y2="5.73487" gradientUnits="userSpaceOnUse">
<stop stop-color="#007C47"/>
<stop offset="0.9816" stop-color="#93C01F"/>
</linearGradient>
<linearGradient id="paint89_linear_482_8949" x1="21.0737" y1="52.8888" x2="61.8377" y2="4.37226" gradientUnits="userSpaceOnUse">
<stop stop-color="#007C47"/>
<stop offset="0.9816" stop-color="#93C01F"/>
</linearGradient>
<linearGradient id="paint90_linear_482_8949" x1="19.3269" y1="51.5507" x2="60.1532" y2="2.96027" gradientUnits="userSpaceOnUse">
<stop stop-color="#007C47"/>
<stop offset="0.9816" stop-color="#93C01F"/>
</linearGradient>
<linearGradient id="paint91_linear_482_8949" x1="17.6542" y1="50.0094" x2="58.4141" y2="1.49791" gradientUnits="userSpaceOnUse">
<stop stop-color="#007C47"/>
<stop offset="0.9816" stop-color="#93C01F"/>
</linearGradient>
<linearGradient id="paint92_linear_482_8949" x1="15.8778" y1="48.4842" x2="56.6207" y2="-0.00710249" gradientUnits="userSpaceOnUse">
<stop stop-color="#007C47"/>
<stop offset="0.9816" stop-color="#93C01F"/>
</linearGradient>
<linearGradient id="paint93_linear_482_8949" x1="13.9826" y1="47.0048" x2="54.7841" y2="-1.55623" gradientUnits="userSpaceOnUse">
<stop stop-color="#007C47"/>
<stop offset="0.9816" stop-color="#93C01F"/>
</linearGradient>
<linearGradient id="paint94_linear_482_8949" x1="12.1029" y1="45.4349" x2="52.9106" y2="-3.1336" gradientUnits="userSpaceOnUse">
<stop stop-color="#007C47"/>
<stop offset="0.9816" stop-color="#93C01F"/>
</linearGradient>
<linearGradient id="paint95_linear_482_8949" x1="10.2198" y1="43.8198" x2="51.0092" y2="-4.72687" gradientUnits="userSpaceOnUse">
<stop stop-color="#007C47"/>
<stop offset="0.9816" stop-color="#93C01F"/>
</linearGradient>
<linearGradient id="paint96_linear_482_8949" x1="8.33956" y1="42.1983" x2="49.1041" y2="-6.31888" gradientUnits="userSpaceOnUse">
<stop stop-color="#007C47"/>
<stop offset="0.9816" stop-color="#93C01F"/>
</linearGradient>
<linearGradient id="paint97_linear_482_8949" x1="6.46121" y1="40.6234" x2="47.2276" y2="-7.89589" gradientUnits="userSpaceOnUse">
<stop stop-color="#007C47"/>
<stop offset="0.9816" stop-color="#93C01F"/>
</linearGradient>
<linearGradient id="paint98_linear_482_8949" x1="4.62822" y1="39.1164" x2="45.4157" y2="-9.42803" gradientUnits="userSpaceOnUse">
<stop stop-color="#007C47"/>
<stop offset="0.9816" stop-color="#93C01F"/>
</linearGradient>
<linearGradient id="paint99_linear_482_8949" x1="2.92394" y1="37.6751" x2="43.7059" y2="-10.8627" gradientUnits="userSpaceOnUse">
<stop stop-color="#007C47"/>
<stop offset="0.9816" stop-color="#93C01F"/>
</linearGradient>
<linearGradient id="paint100_linear_482_8949" x1="1.37992" y1="36.3843" x2="42.1672" y2="-12.1599" gradientUnits="userSpaceOnUse">
<stop stop-color="#007C47"/>
<stop offset="0.9816" stop-color="#93C01F"/>
</linearGradient>
<linearGradient id="paint101_linear_482_8949" x1="0.0891212" y1="35.2886" x2="40.8678" y2="-13.2453" gradientUnits="userSpaceOnUse">
<stop stop-color="#007C47"/>
<stop offset="0.9816" stop-color="#93C01F"/>
</linearGradient>
<linearGradient id="paint102_linear_482_8949" x1="-0.876094" y1="34.4841" x2="39.9091" y2="-14.0575" gradientUnits="userSpaceOnUse">
<stop stop-color="#007C47"/>
<stop offset="0.9816" stop-color="#93C01F"/>
</linearGradient>
<linearGradient id="paint103_linear_482_8949" x1="-1.3915" y1="34.0464" x2="39.3888" y2="-14.4895" gradientUnits="userSpaceOnUse">
<stop stop-color="#007C47"/>
<stop offset="0.9816" stop-color="#93C01F"/>
</linearGradient>
<linearGradient id="paint104_linear_482_8949" x1="-1.35003" y1="34.0773" x2="39.4257" y2="-14.4531" gradientUnits="userSpaceOnUse">
<stop stop-color="#007C47"/>
<stop offset="0.9816" stop-color="#93C01F"/>
</linearGradient>
<linearGradient id="paint105_linear_482_8949" x1="-0.637479" y1="34.6796" x2="40.1422" y2="-13.8556" gradientUnits="userSpaceOnUse">
<stop stop-color="#007C47"/>
<stop offset="0.9816" stop-color="#93C01F"/>
</linearGradient>
<linearGradient id="paint106_linear_482_8949" x1="0.855996" y1="35.9338" x2="41.6344" y2="-12.5998" gradientUnits="userSpaceOnUse">
<stop stop-color="#007C47"/>
<stop offset="0.9816" stop-color="#93C01F"/>
</linearGradient>
<linearGradient id="paint107_linear_482_8949" x1="3.19846" y1="37.9004" x2="43.973" y2="-10.6286" gradientUnits="userSpaceOnUse">
<stop stop-color="#007C47"/>
<stop offset="0.9816" stop-color="#93C01F"/>
</linearGradient>
<linearGradient id="paint108_linear_482_8949" x1="6.41024" y1="40.5989" x2="47.1872" y2="-7.93283" gradientUnits="userSpaceOnUse">
<stop stop-color="#007C47"/>
<stop offset="0.9816" stop-color="#93C01F"/>
</linearGradient>
<linearGradient id="paint109_linear_482_8949" x1="10.4359" y1="43.9832" x2="51.2141" y2="-4.55026" gradientUnits="userSpaceOnUse">
<stop stop-color="#007C47"/>
<stop offset="0.9816" stop-color="#93C01F"/>
</linearGradient>
<linearGradient id="paint110_linear_482_8949" x1="15.1482" y1="47.9407" x2="55.9221" y2="-0.587554" gradientUnits="userSpaceOnUse">
<stop stop-color="#007C47"/>
<stop offset="0.9816" stop-color="#93C01F"/>
</linearGradient>
<linearGradient id="paint111_linear_482_8949" x1="20.3424" y1="52.3072" x2="61.1183" y2="3.77652" gradientUnits="userSpaceOnUse">
<stop stop-color="#007C47"/>
<stop offset="0.9816" stop-color="#93C01F"/>
</linearGradient>
<linearGradient id="paint112_linear_482_8949" x1="13.5322" y1="38.6102" x2="49.1218" y2="-3.7477" gradientUnits="userSpaceOnUse">
<stop stop-color="#007C47"/>
<stop offset="0.9816" stop-color="#93C01F"/>
</linearGradient>
<linearGradient id="paint113_linear_482_8949" x1="16.077" y1="29.9001" x2="42.1665" y2="-1.15105" gradientUnits="userSpaceOnUse">
<stop stop-color="#007C47"/>
<stop offset="0.9816" stop-color="#93C01F"/>
</linearGradient>
</defs>
</svg>
